<?xml version="1.0" encoding="UTF-8"?>
<svg width="329px" height="92px" viewBox="0 0 329 92" version="1.1" xmlns="http://www.w3.org/2000/svg" xmlns:xlink="http://www.w3.org/1999/xlink">
    <!-- Generator: Sketch 55.2 (78181) - https://sketchapp.com -->
    <title>CrowdSpot_Monash_XYX_logo_archive_map_4</title>
    <desc>Created with Sketch.</desc>
    <defs>
        <polygon id="path-1" points="0 0.115495575 158.777667 0.115495575 158.777667 30.9835398 0 30.9835398"></polygon>
    </defs>
    <g id="Page-1" stroke="none" stroke-width="1" fill="none" fill-rule="evenodd">
        <g id="CrowdSpot_Monash_XYX_logo_archive_map_4">
            <g id="CrowdSpot_horizontal_black-Copy" transform="translate(52.000000, 0.000000)">
                <g id="Group-3" transform="translate(0.000000, 5.000000)">
                    <mask id="mask-2" fill="white">
                        <use xlink:href="#path-1"></use>
                    </mask>
                    <g id="Clip-2"></g>
                    <path d="M20.322605,2.00567257 C18.3771933,1.07869027 17.5781849,0.793106195 15.9109563,0.436469027 C14.8337647,0.222486726 13.7568403,0.115495575 12.7146555,0.115495575 C5.52357983,0.115495575 0,5.4650531 0,12.4548673 C0,19.5165575 5.38462185,24.866115 12.540958,24.866115 C14.8337647,24.866115 17.2307899,24.3665487 19.4193782,23.4039027 C19.6278151,23.3325752 19.9404706,23.1899204 20.322605,23.0116018 L20.322605,17.5193894 C18.273242,18.7319558 17.4047546,19.1242566 15.9109563,19.5165575 C15.0424689,19.7308142 14.1739815,19.837531 13.3399664,19.837531 C8.85857143,19.837531 5.45410084,16.6631858 5.45410084,12.4548673 C5.45410084,8.38920354 8.82409916,5.14407965 13.0273109,5.14407965 C14.9379832,5.14407965 17.0570924,5.75036283 19.0025042,6.85566372 C19.3151597,7.03425664 19.7670403,7.31984071 20.322605,7.71186726 L20.322605,2.00567257 Z M31.9600689,7.10530973 C31.2305395,6.99859292 30.917884,6.9629292 30.4315311,6.9629292 C29.7714807,6.9629292 29.1809092,7.03425664 28.6250773,7.1769115 C27.6871109,7.46222124 27.2357647,7.74725664 26.3672773,8.63884956 L26.3672773,7.10530973 L21.7119176,7.10530973 L21.7119176,24.3665487 L26.714405,24.3665487 L26.714405,12.8117788 C27.409195,12.1341681 27.7565899,11.9201858 28.6598168,11.6346018 C29.285395,11.4208938 29.9451782,11.3136283 30.5704891,11.3136283 C31.0223697,11.3136283 31.3000185,11.3495664 31.9600689,11.5281593 L31.9600689,7.10530973 Z M49.6969866,15.7715929 C49.6969866,10.7789469 45.7019445,6.74922124 40.7344639,6.74922124 C35.697237,6.74922124 31.7716739,10.7076195 31.7716739,15.7715929 C31.7716739,20.800177 35.7317092,24.7947876 40.7689361,24.7947876 C45.7714235,24.7947876 49.6969866,20.836115 49.6969866,15.7715929 L49.6969866,15.7715929 Z M44.7989849,15.7715929 C44.7989849,18.2326637 43.0272706,20.087177 40.7344639,20.087177 C38.4066504,20.087177 36.6352034,18.2326637 36.6352034,15.7715929 C36.6352034,13.3113451 38.3721782,11.4922212 40.6994571,11.4922212 C42.9919966,11.4922212 44.7989849,13.3823982 44.7989849,15.7715929 L44.7989849,15.7715929 Z M75.1960437,7.10530973 L69.7072034,7.10530973 L67.2056924,17.8403628 L64.5654908,7.10530973 L59.2853546,7.10530973 L56.6798924,17.8403628 L54.143642,7.10530973 L48.7242807,7.10530973 L53.9004655,24.3665487 L59.2853546,24.3665487 L61.8908168,14.2029381 L64.5654908,24.3665487 L70.0195916,24.3665487 L75.1960437,7.10530973 Z M91.1754101,0.579123894 L86.1731899,0.579123894 L86.1731899,7.53354867 C84.8875613,6.99859292 83.741158,6.74922124 82.5252756,6.74922124 C77.8701832,6.74922124 74.1877966,10.6716814 74.1877966,15.593823 C74.1877966,20.4792035 77.9744017,24.5810796 82.4560639,24.5810796 C84.0190739,24.5810796 85.269963,24.1528407 86.4858454,23.1899204 L86.4858454,24.3665487 L91.1754101,24.3665487 L91.1754101,0.579123894 Z M86.1731899,12.2765487 L86.1731899,18.9459381 C85.2349563,19.5876106 84.2275109,19.9085841 83.1853261,19.9085841 C80.8230403,19.9085841 79.0165866,18.0543451 79.0165866,15.6651504 C79.0165866,13.2400177 80.7535613,11.4922212 83.2898118,11.4922212 C84.2622504,11.4922212 84.9570403,11.7064779 86.1731899,12.2765487 L86.1731899,12.2765487 Z M107.259797,4.00284071 C106.008908,1.39966372 103.855326,0.115495575 100.694032,0.115495575 C96.4210739,0.115495575 93.399005,2.79027434 93.399005,6.57062832 C93.399005,8.67478761 94.3367042,10.4933628 96.2129042,11.9915133 C96.8729546,12.5261947 97.5677445,12.9544336 98.2275277,13.3113451 C98.3317462,13.3464602 98.9570571,13.6674336 100.103193,14.2029381 C102.257309,15.2728496 103.056318,16.0925664 103.056318,17.2338053 C103.056318,18.6960177 101.910182,19.837531 100.450855,19.837531 C98.8875782,19.837531 97.6372235,18.8392212 96.6642504,16.8417788 L92.4260319,19.6948761 C94.4409227,23.2971858 96.8729546,24.866115 100.346904,24.866115 C105.210166,24.866115 108.788067,21.6207168 108.788067,17.1984159 C108.788067,14.7376195 107.607459,12.5621327 105.522822,11.1358584 C104.862771,10.7076195 104.237461,10.3509823 103.61215,10.1010619 C103.473192,10.0300088 102.882353,9.7800885 101.910182,9.38806195 C99.4428756,8.35381416 98.539916,7.56921239 98.539916,6.42824779 C98.539916,5.39372566 99.4084034,4.60912389 100.589546,4.60912389 C101.875175,4.60912389 102.569965,5.17974336 103.056318,6.60629204 L107.259797,4.00284071 Z M114.624303,7.10530973 L109.96921,7.10530973 L109.96921,31 L114.97143,31 L114.97143,23.7959292 C115.770439,24.2954956 116.083094,24.4378761 117.021061,24.616469 C117.611899,24.7588496 118.202203,24.7947876 118.758035,24.7947876 C123.413128,24.7947876 127.026303,20.9433805 127.026303,15.9147965 C127.026303,10.7430088 123.378655,6.74922124 118.688556,6.74922124 C117.333716,6.74922124 116.18758,7.07019469 115.319092,7.71186726 C115.110655,7.85452212 114.901951,8.06823009 114.624303,8.28248673 L114.624303,7.10530973 Z M114.97143,12.3838142 C116.291798,11.6705398 117.056067,11.4208938 118.063245,11.4208938 C120.460538,11.4208938 122.162506,13.2040796 122.162506,15.7362035 C122.162506,18.3753186 120.530017,20.2295575 118.167731,20.2295575 C117.021061,20.2295575 116.013615,19.9445221 114.97143,19.3739027 L114.97143,12.3838142 Z M146.063012,15.7715929 C146.063012,10.7789469 142.068237,6.74922124 137.100489,6.74922124 C132.063529,6.74922124 128.137432,10.7076195 128.137432,15.7715929 C128.137432,20.800177 132.098002,24.7947876 137.135496,24.7947876 C142.137716,24.7947876 146.063012,20.836115 146.063012,15.7715929 L146.063012,15.7715929 Z M141.165277,15.7715929 C141.165277,18.2326637 139.393296,20.087177 137.100489,20.087177 C134.772676,20.087177 133.001229,18.2326637 133.001229,15.7715929 C133.001229,13.3113451 134.738203,11.4922212 137.065482,11.4922212 C139.358556,11.4922212 141.165277,13.3823982 141.165277,15.7715929 L141.165277,15.7715929 Z M158.777667,7.10530973 L152.976171,7.10530973 L152.976171,2.82593805 L148.042896,2.82593805 L148.042896,7.10530973 L145.715617,7.10530973 L145.715617,11.1712478 L148.042896,11.1712478 L148.042896,17.8403628 C148.042896,20.336823 148.390291,21.5493894 149.46775,22.7265664 C150.648892,24.0455752 152.316388,24.7588496 154.227061,24.7588496 C155.477148,24.7588496 156.936474,24.5097522 158.048138,24.0815133 C158.187096,24.0104602 158.430272,23.9031947 158.777667,23.7605398 L158.777667,19.2315221 C157.527313,19.9799115 156.519333,20.2654956 155.303718,20.2654956 C154.434963,20.2654956 153.705701,19.9799115 153.393045,19.4811681 C153.08039,18.9816018 152.976171,18.5176991 152.976171,17.1627522 L152.976171,11.1712478 L158.777667,11.1712478 L158.777667,7.10530973 L158.777667,7.10530973 Z" id="Fill-1" fill="#000000" mask="url(#mask-2)"></path>
                </g>
                <polyline id="Fill-4" fill="#000000" points="209 19 213.735619 36 213.949209 36 219 19 209 19"></polyline>
                <path d="M227,12.5001342 C227,5.59645392 221.403278,0 214.499597,0 C207.596185,0 202,5.59645392 202,12.5001342 C202,19.4035461 207.596185,25 214.499597,25 C221.403278,25 227,19.4035461 227,12.5001342 M212.055897,9.14091949 C212.055897,10.9225491 210.611747,12.3664315 208.829848,12.3664315 C207.048219,12.3664315 205.604068,10.9225491 205.604068,9.14091949 C205.604068,7.35955841 207.048219,5.91487054 208.829848,5.91487054 C210.611747,5.91487054 212.055897,7.35955841 212.055897,9.14091949" id="Fill-5" fill="#000000"></path>
                <polyline id="Fill-6" fill="#000000" points="186 26.9444853 202.949496 27 203 26.7871427 188.371788 17 186 26.9444853"></polyline>
                <path d="M193,18.5001342 C193,11.5966022 187.403815,6 180.500134,6 C173.596454,6 168,11.5966022 168,18.5001342 C168,25.4036663 173.596454,31 180.500134,31 C187.403815,31 193,25.4036663 193,18.5001342 M188.48176,13.8743328 C188.48176,15.6561926 187.03734,17.1003125 185.255979,17.1003125 C183.474618,17.1003125 182.030199,15.6561926 182.030199,13.8743328 C182.030199,12.0932785 183.474618,10.6491586 185.255979,10.6491586 C187.03734,10.6491586 188.48176,12.0932785 188.48176,13.8743328" id="Fill-7" fill="#000000"></path>
            </g>
            <g id="monash_uni_xyx" transform="translate(0.000000, 36.000000)">
                <g id="Group-104" transform="translate(0.000000, 14.000000)" fill-rule="nonzero">
                    <path d="M43.272,16.373 L43.272,24.087 C43.272,27.258 41.97,28.735 39.175,28.735 C35.937,28.735 35.257,26.208 35.257,24.087 L35.257,16.373 L34.313,16.373 L34.313,24.087 C34.313,27.726 35.949,29.573 39.175,29.573 C42.52,29.573 44.216,27.726 44.216,24.087 L44.216,16.373 L43.272,16.373" id="Fill-1" fill="#1A1919"></path>
                    <path d="M50.329,19.723 C48.88,19.723 47.623,20.502 47.09,21.682 C47.09,21.254 47.09,19.938 47.09,19.938 L46.253,19.938 L46.253,29.27 L47.09,29.27 L47.09,24.228 C47.09,21.946 48.353,20.472 50.31,20.472 C52.836,20.472 52.836,22.669 52.836,23.391 L52.836,29.27 L53.673,29.27 L53.673,23.515 C53.673,22.479 53.673,19.723 50.329,19.723" id="Fill-3" fill="#1A1919"></path>
                    <polygon id="Fill-4" fill="#1A1919" points="55.745 29.27 56.583 29.27 56.583 19.938 55.745 19.938"></polygon>
                    <polygon id="Fill-5" fill="#1A1919" points="55.745 18.341 56.583 18.341 56.583 17.083 55.745 17.083"></polygon>
                    <path d="M64.888,19.938 C64.888,19.938 61.925,27.943 61.819,28.229 C61.707,27.945 58.538,19.938 58.538,19.938 L57.581,19.938 L61.339,29.27 L62.286,29.27 L65.808,19.938 L64.888,19.938" id="Fill-6" fill="#1A1919"></path>
                    <path d="M70.367,20.472 C72.442,20.472 73.57,22.245 73.635,24.024 C73.468,24.024 67.264,24.024 67.087,24.024 C67.259,22.245 68.424,20.472 70.367,20.472 Z M70.367,19.723 C69.283,19.723 68.334,20.105 67.622,20.827 C66.721,21.743 66.216,23.177 66.238,24.765 C66.218,26.229 66.67,27.508 67.513,28.362 C68.235,29.095 69.223,29.483 70.367,29.483 C72.609,29.483 74.044,28.28 74.407,26.098 L74.423,26.005 L73.586,26.005 L73.574,26.07 C73.257,27.739 72.058,28.735 70.367,28.735 C69.485,28.735 68.745,28.438 68.171,27.854 C67.472,27.143 67.074,26.031 67.074,24.792 C67.074,24.786 67.074,24.78 67.074,24.773 C67.229,24.773 74.477,24.773 74.477,24.773 L74.481,24.697 C74.486,24.579 74.489,24.462 74.489,24.347 C74.489,22.919 74.065,21.692 73.279,20.869 C72.554,20.11 71.574,19.723 70.367,19.723 L70.367,19.723 Z" id="Fill-7" fill="#1A1919"></path>
                    <path d="M76.817,21.79 C76.817,21.391 76.817,19.938 76.817,19.938 L75.981,19.938 L75.981,29.27 L76.817,29.27 L76.817,24.174 C76.891,22.778 77.19,22.248 77.831,21.589 C78.819,20.623 79.969,20.679 80.298,20.72 L80.388,20.731 L80.388,19.889 L80.311,19.886 C78.782,19.818 77.314,20.642 76.817,21.79" id="Fill-8" fill="#1A1919"></path>
                    <path d="M84.801,24.097 C84.803,24.098 84.518,24.037 84.518,24.037 C83.128,23.742 81.815,23.464 81.815,22.158 C81.815,20.914 83.137,20.472 84.376,20.472 C85.35,20.472 86.988,20.764 87.009,22.731 L87.01,22.809 L87.846,22.809 L87.846,22.731 C87.846,20.791 86.613,19.723 84.376,19.723 C83.579,19.723 80.978,19.9 80.978,22.158 C80.978,24.19 82.839,24.567 84.199,24.842 L84.441,24.891 C85.899,25.184 87.277,25.462 87.277,26.87 C87.277,28.554 85.298,28.735 84.448,28.735 C82.752,28.735 81.593,27.714 81.494,26.133 L81.488,26.058 L80.654,26.058 L80.656,26.14 C80.708,28.202 82.161,29.483 84.448,29.483 C85.308,29.483 88.113,29.294 88.113,26.87 C88.113,24.875 86.613,24.435 84.801,24.097" id="Fill-9" fill="#1A1919"></path>
                    <polygon id="Fill-10" fill="#1A1919" points="89.829 29.27 90.666 29.27 90.666 19.938 89.829 19.938"></polygon>
                    <path d="M94.269,19.938 C94.269,19.788 94.269,17.083 94.269,17.083 L93.432,17.083 C93.432,17.083 93.432,19.788 93.432,19.938 C93.289,19.938 91.738,19.938 91.738,19.938 L91.738,20.686 C91.738,20.686 93.289,20.686 93.432,20.686 C93.432,20.841 93.432,27.012 93.432,27.012 C93.43,27.066 93.43,27.119 93.43,27.171 C93.43,27.889 93.605,28.411 93.968,28.762 C94.523,29.302 95.439,29.316 96.176,29.27 L96.25,29.264 L96.25,28.52 L96.168,28.521 C95.411,28.542 94.913,28.497 94.613,28.206 C94.379,27.978 94.269,27.599 94.269,27.012 C94.269,27.012 94.269,20.841 94.269,20.686 C94.396,20.686 96.096,20.686 96.598,20.686 C97.516,22.866 100.135,29.091 100.154,29.139 C99.742,30.306 99.493,30.984 99.238,31.238 C98.805,31.673 98.371,31.805 97.384,31.805 L97.304,31.805 L97.304,32.552 L97.384,32.552 C98.406,32.552 99.062,32.523 99.575,32.126 C99.97,31.82 100.265,31.165 100.67,30.202 C100.671,30.2 104.638,19.938 104.638,19.938 L103.7,19.938 C103.7,19.938 100.747,27.805 100.611,28.167 C100.465,27.809 97.259,19.938 97.259,19.938 L94.269,19.938" id="Fill-11" fill="#1A1919"></path>
                    <polygon id="Fill-12" fill="#1A1919" points="89.827 18.341 90.665 18.341 90.665 17.083 89.827 17.083"></polygon>
                    <path d="M55.627,1.74 C52.799,1.74 50.827,3.822 50.827,7.318 C50.827,11.503 53.315,13.394 55.665,13.394 C58.494,13.394 60.37,11.219 60.37,7.777 C60.407,4.09 58.494,1.74 55.627,1.74 Z M55.494,14.274 C51.786,14.197 48.668,11.35 48.764,7.414 C48.86,4.318 51.347,0.802 55.876,0.936 C59.028,0.995 62.567,3.364 62.471,7.719 C62.376,12.076 58.684,14.37 55.494,14.274 L55.494,14.274 Z" id="Fill-13" fill="#1A1919"></path>
                    <path d="M109.987,1.29 L109.987,1.106 L106.28,1.106 L106.28,1.29 C107.014,1.338 107.217,1.482 107.217,2.524 L107.217,7.047 L100.566,7.047 L100.566,2.524 C100.566,1.482 100.769,1.338 101.503,1.29 L101.503,1.106 L97.796,1.106 L97.796,1.29 C98.529,1.338 98.732,1.482 98.732,2.524 L98.732,12.68 C98.732,13.724 98.529,13.87 97.796,13.917 L97.796,14.099 L101.503,14.099 L101.503,13.917 C100.769,13.87 100.566,13.724 100.566,12.68 L100.566,7.831 L107.217,7.831 L107.217,12.68 C107.217,13.724 107.014,13.87 106.28,13.917 L106.28,14.099 L109.987,14.099 L109.987,13.917 C109.253,13.87 109.05,13.724 109.05,12.68 L109.05,2.524 C109.05,1.482 109.253,1.338 109.987,1.29" id="Fill-14" fill="#1A1919"></path>
                    <path d="M63.453,1.106 L63.453,1.29 C64.167,1.328 64.369,1.406 64.369,2.157 L64.369,12.68 C64.369,13.724 64.168,13.87 63.433,13.917 L63.433,14.099 L66.232,14.099 L66.232,13.917 C65.498,13.87 65.294,13.724 65.294,12.68 L65.294,3.227 C65.294,3.398 72.53,12.202 74.091,14.099 L74.39,14.099 L74.39,2.157 C74.39,1.406 74.592,1.328 75.307,1.29 L75.307,1.106 L72.556,1.106 L72.556,1.29 C73.27,1.328 73.474,1.406 73.474,2.157 L73.474,10.413 L65.925,1.106 L63.453,1.106" id="Fill-15" fill="#1A1919"></path>
                    <path d="M78.898,9.418 C79.739,7.354 81.039,4.068 81.039,4.068 C81.039,4.068 82.204,7.01 83.198,9.418 L78.898,9.418 Z M81.684,1.106 L81.426,1.106 C80.767,2.667 77.728,9.863 76.669,12.349 C76.485,12.775 76.19,13.465 75.971,13.704 C75.797,13.888 75.633,13.908 75.478,13.917 L75.478,14.099 L77.949,14.099 L77.949,13.917 C77.753,13.917 77.329,13.914 77.298,13.549 C77.296,13.433 77.32,13.307 77.369,13.165 C77.446,12.934 77.943,11.673 78.574,10.24 L83.522,10.24 C84.009,11.449 84.455,12.483 84.661,12.941 C84.719,13.077 84.845,13.394 84.845,13.549 C84.845,13.908 84.527,13.917 84.169,13.917 L84.169,14.099 L87.623,14.099 L87.623,13.917 C87.198,13.888 87.063,13.782 86.754,13.08 L81.684,1.106 L81.684,1.106 Z" id="Fill-16" fill="#1A1919"></path>
                    <path d="M33.642,1.106 L33.642,1.29 C34.042,1.312 34.277,1.35 34.411,1.507 C34.451,1.569 34.489,1.632 34.513,1.699 C34.513,1.7 34.513,1.701 34.513,1.701 C34.536,1.767 34.545,1.839 34.549,1.91 C34.556,1.983 34.56,2.065 34.56,2.157 L34.56,12.68 C34.56,13.724 34.357,13.87 33.623,13.917 L33.623,14.099 L36.393,14.099 L36.393,13.917 C35.66,13.87 35.457,13.724 35.457,12.68 L35.457,3.667 C35.457,3.495 35.419,3.17 35.419,3.17 L35.591,3.667 L40.079,14.051 L40.351,14.051 L44.935,3.361 L45.069,2.921 C45.069,2.921 45.03,3.132 45.03,3.323 L45.03,12.68 C45.03,13.724 44.829,13.87 44.095,13.917 L44.095,14.099 L47.802,14.099 L47.802,13.917 C47.068,13.87 46.866,13.724 46.866,12.68 L46.866,2.157 C46.866,1.406 47.068,1.328 47.782,1.29 L47.782,1.106 L44.898,1.106 L40.751,10.909 L36.547,1.106 L33.642,1.106" id="Fill-17" fill="#1A1919"></path>
                    <path d="M88.274,13.226 C89.146,13.75 90.438,14.3 91.807,14.2950672 C91.833,14.2950672 91.86,14.294 91.886,14.294 C93.913,14.265 96.051,12.764 96.051,10.399 C96.051,7.838 94.254,7.246 92.439,6.309 C90.605,5.411 89.84,4.952 89.84,3.749 C89.84,2.927 90.337,1.724 91.961,1.724 C92.478,1.724 92.932,1.855 93.326,2.062 C94.641,2.792 94.706,3.825 94.876,4.48 L95.067,4.48 L94.956,1.587 C94.12,1.239 93.455,1.081 92.989,1.012 C92.709,0.976 92.447,0.959 92.229,0.959 C90.414,0.959 88.274,2.049 88.274,4.341 C88.274,5.908 89.21,6.883 91.064,7.8 C92.897,8.735 94.292,9.1 94.292,10.934 C94.292,11.871 93.758,13.493 91.695,13.493 C90.871,13.493 90.214,13.208 89.695,12.776 C88.472,11.62 88.5,10.703 88.407,10.361 L88.216,10.361 L88.274,13.226" id="Fill-18" fill="#1A1919"></path>
                    <path d="M4.44179564,11.053 C4.44179564,11.585 4.385,15.697 6.96,19.947 C9.274,23.784 12.721,25.473 14.191,26.006 C15.676,25.473 19.12,23.784 21.434,19.947 C24.013,15.697 23.9512602,11.585 23.9512602,11.053 L23.9512602,1.051 L4.44179564,1.05 L4.44179564,11.053" id="Fill-19" fill="#1A1919"></path>
                    <path d="M25.118,15.754 L25.024,16.076 C24.91,16.461 24.783,16.835 24.65,17.194 L23.809,16.437 L23.706,16.742 C23.257,18.069 22.674,19.319 21.97,20.446 C20.138,23.379 17.549,25.52 14.504,26.632 C14.504,26.632 14.285,26.709 14.191,26.743 C14.103,26.709 13.888,26.632 13.888,26.632 C10.845,25.516 8.259,23.379 6.426,20.446 C5.722,19.325 5.13,18.075 4.689,16.742 L4.586,16.437 L4.343,16.651 L3.748,17.189 C3.617,16.83 3.487,16.462 3.372,16.076 L3.278,15.755 L3.031,15.98 L0.929,17.876 L0.967,18.003 C1.465,19.608 2.287,21.255 2.897,22.351 L3.019,22.58 L3.893,21.799 C3.926,21.858 3.954,21.921 3.989,21.977 C6.167,25.456 9.249,27.998 12.903,29.335 L14.191,29.808 L15.495,29.335 C19.149,27.998 22.224,25.456 24.402,21.98 C24.436,21.924 24.469,21.858 24.503,21.801 L25.364,22.58 L25.495,22.351 C26.102,21.265 26.922,19.631 27.422,18.001 L27.461,17.876 L25.118,15.754" id="Fill-20" fill="#1A1919"></path>
                    <path d="M22.313,5.446 C22.313,5.584 22.279,5.72 22.222,5.835 C22.191,5.906 22.14,5.971 22.079,6.029 C21.996,6.066 21.917,6.113 21.847,6.173 C21.842,6.141 21.836,6.106 21.836,6.077 C21.836,5.933 21.867,5.804 21.932,5.686 C22.011,5.53 22.147,5.413 22.298,5.328 C22.304,5.366 22.313,5.407 22.313,5.446" id="Fill-21" fill="#FFFFFE"></path>
                    <path d="M20.727,8.09 L20.727,8.09 C20.898,8.066 21.07,8.101 21.222,8.179 C21.102,8.306 20.949,8.392 20.777,8.418 C20.605,8.444 20.429,8.406 20.263,8.331 C20.4,8.206 20.554,8.115 20.727,8.09" id="Fill-22" fill="#FFFFFE"></path>
                    <path d="M19.889,8.353 C19.888,8.34 19.886,8.328 19.886,8.314 C19.886,8.152 19.929,8 20.012,7.869 L20.014,7.869 C20.102,7.729 20.229,7.628 20.392,7.557 C20.395,7.573 20.397,7.589 20.397,7.603 C20.397,7.764 20.354,7.907 20.273,8.037 C20.191,8.185 20.055,8.286 19.889,8.353" id="Fill-23" fill="#FFFFFE"></path>
                    <path d="M20.534,7.446 C20.593,7.345 20.677,7.258 20.779,7.18 C20.799,7.258 20.828,7.337 20.828,7.411 C20.828,7.5 20.814,7.586 20.786,7.669 C20.746,7.785 20.674,7.881 20.579,7.972 C20.545,7.981 20.509,7.994 20.473,8.009 C20.472,8.001 20.469,7.994 20.468,7.986 C20.538,7.824 20.56,7.64 20.534,7.446" id="Fill-24" fill="#FFFFFE"></path>
                    <path d="M20.901,7.032 C20.935,6.916 20.997,6.812 21.08,6.711 C21.155,6.843 21.201,6.98 21.201,7.124 C21.201,7.145 21.201,7.167 21.198,7.189 C21.19,7.312 21.144,7.423 21.075,7.532 C21.039,7.551 21.004,7.573 20.972,7.596 C20.969,7.59 20.965,7.582 20.962,7.576 C20.993,7.397 20.974,7.216 20.901,7.032" id="Fill-25" fill="#FFFFFE"></path>
                    <path d="M21.159,6.537 C21.165,6.416 21.198,6.304 21.243,6.19 C21.364,6.318 21.451,6.463 21.476,6.626 C21.48,6.664 21.483,6.701 21.483,6.737 C21.483,6.823 21.465,6.903 21.435,6.986 C21.405,7.014 21.377,7.043 21.352,7.074 C21.345,7.067 21.341,7.06 21.337,7.053 C21.322,6.873 21.259,6.701 21.159,6.537" id="Fill-26" fill="#FFFFFE"></path>
                    <path d="M21.281,5.999 C21.269,5.944 21.262,5.889 21.262,5.833 C21.262,5.776 21.281,5.71 21.295,5.646 C21.442,5.744 21.561,5.86 21.623,6.011 C21.661,6.11 21.68,6.215 21.68,6.317 C21.68,6.333 21.676,6.348 21.675,6.365 C21.649,6.399 21.629,6.436 21.609,6.475 C21.602,6.469 21.595,6.465 21.589,6.459 C21.534,6.294 21.43,6.134 21.281,5.999" id="Fill-27" fill="#FFFFFE"></path>
                    <path d="M21.291,5.457 C21.238,5.344 21.214,5.229 21.213,5.095 C21.377,5.159 21.524,5.254 21.621,5.383 C21.69,5.479 21.735,5.592 21.755,5.718 C21.74,5.757 21.728,5.798 21.719,5.837 C21.709,5.834 21.702,5.832 21.693,5.829 C21.602,5.678 21.462,5.547 21.291,5.457" id="Fill-28" fill="#FFFFFE"></path>
                    <path d="M21.674,5.19 C21.663,5.189 21.653,5.188 21.642,5.186 C21.52,5.061 21.36,4.968 21.182,4.915 C21.108,4.822 21.06,4.714 21.026,4.591 C21.2,4.611 21.349,4.666 21.473,4.774 C21.563,4.849 21.632,4.956 21.68,5.076 C21.675,5.114 21.674,5.153 21.674,5.19" id="Fill-29" fill="#FFFFFE"></path>
                    <path d="M21.461,4.581 C21.307,4.481 21.14,4.428 20.939,4.422 C20.843,4.344 20.766,4.248 20.701,4.132 C20.879,4.114 21.047,4.139 21.198,4.216 C21.295,4.273 21.385,4.353 21.456,4.457 C21.461,4.497 21.468,4.537 21.478,4.578 C21.473,4.579 21.466,4.579 21.461,4.581" id="Fill-30" fill="#FFFFFE"></path>
                    <path d="M21.124,7.972 C21.039,7.947 20.949,7.932 20.863,7.932 C20.961,7.794 21.086,7.678 21.224,7.614 C21.386,7.549 21.563,7.546 21.741,7.584 C21.641,7.736 21.516,7.855 21.353,7.916 C21.275,7.949 21.204,7.966 21.124,7.972" id="Fill-31" fill="#FFFFFE"></path>
                    <path d="M21.593,7.405 C21.501,7.401 21.41,7.408 21.322,7.428 C21.386,7.27 21.48,7.126 21.615,7.031 L21.615,7.029 C21.753,6.929 21.926,6.878 22.113,6.873 C22.05,7.052 21.952,7.205 21.812,7.304 C21.745,7.347 21.671,7.38 21.593,7.405" id="Fill-32" fill="#FFFFFE"></path>
                    <path d="M22.106,6.594 C22.052,6.657 21.986,6.71 21.914,6.752 C21.826,6.769 21.741,6.795 21.664,6.831 C21.686,6.662 21.743,6.502 21.85,6.371 C21.963,6.248 22.123,6.164 22.286,6.118 C22.265,6.301 22.218,6.463 22.106,6.594" id="Fill-33" fill="#FFFFFE"></path>
                    <path d="M22.195,4.88 C22.195,4.945 22.187,5.011 22.172,5.074 C22.154,5.154 22.118,5.229 22.072,5.298 C22,5.35 21.936,5.414 21.881,5.487 C21.844,5.386 21.819,5.291 21.819,5.189 C21.819,5.124 21.828,5.057 21.844,4.992 C21.886,4.825 21.99,4.683 22.127,4.558 C22.168,4.668 22.195,4.778 22.195,4.88" id="Fill-34" fill="#FFFFFE"></path>
                    <path d="M21.597,4.336 C21.597,4.172 21.664,4.008 21.767,3.853 C21.869,4.004 21.934,4.17 21.934,4.34 L21.934,4.343 C21.934,4.424 21.915,4.505 21.89,4.583 C21.833,4.652 21.787,4.729 21.75,4.807 C21.656,4.664 21.597,4.508 21.597,4.344 C21.597,4.342 21.597,4.336 21.597,4.336" id="Fill-35" fill="#FFFFFE"></path>
                    <path d="M21.251,3.25 C21.388,3.372 21.491,3.518 21.531,3.687 C21.543,3.747 21.553,3.805 21.553,3.864 C21.553,3.883 21.55,3.901 21.548,3.918 C21.507,4.004 21.476,4.092 21.461,4.182 C21.337,4.063 21.239,3.921 21.21,3.767 C21.2,3.706 21.194,3.642 21.194,3.58 C21.194,3.47 21.214,3.357 21.251,3.25" id="Fill-36" fill="#FFFFFE"></path>
                    <path d="M21.155,4.02 C21.149,4.023 21.14,4.024 21.131,4.027 C20.958,3.967 20.77,3.956 20.577,3.995 C20.468,3.942 20.367,3.863 20.282,3.772 C20.452,3.71 20.625,3.696 20.786,3.735 C20.904,3.765 21.01,3.823 21.104,3.906 C21.12,3.945 21.138,3.984 21.155,4.02" id="Fill-37" fill="#FFFFFE"></path>
                    <path d="M20.623,2.784 C20.786,2.87 20.92,2.988 20.997,3.147 C21.033,3.217 21.055,3.289 21.07,3.363 C21.051,3.456 21.043,3.548 21.047,3.642 C20.896,3.552 20.768,3.438 20.69,3.294 C20.635,3.18 20.608,3.051 20.608,2.916 C20.608,2.871 20.619,2.826 20.623,2.784" id="Fill-38" fill="#FFFFFE"></path>
                    <path d="M20.434,3.118 C20.452,3.133 20.469,3.149 20.486,3.165 C20.505,3.233 20.526,3.296 20.557,3.357 L20.557,3.359 C20.59,3.422 20.632,3.482 20.68,3.538 C20.517,3.527 20.366,3.478 20.238,3.389 C20.107,3.289 20.009,3.139 19.946,2.964 C20.133,2.966 20.291,3.018 20.434,3.118" id="Fill-39" fill="#FFFFFE"></path>
                    <path d="M18.119,6.846 C18.216,6.846 18.302,6.933 18.302,7.042 C18.302,7.072 18.29,7.103 18.281,7.12 C18.264,7.155 18.253,7.194 18.325,7.194 L18.587,7.194 L18.587,3.881 C18.587,3.426 18.623,2.891 18.884,2.363 L18.959,2.216 L19.034,2.363 C19.283,2.896 19.319,3.429 19.319,3.881 L19.319,7.194 L19.58,7.194 C19.654,7.194 19.642,7.155 19.624,7.12 C19.615,7.103 19.604,7.072 19.604,7.042 C19.604,6.933 19.692,6.846 19.801,6.846 C19.911,6.846 19.998,6.941 19.998,7.048 C19.998,7.184 19.893,7.324 19.648,7.324 L19.216,7.324 C19.278,7.487 19.315,7.713 19.315,7.955 C19.315,8.265 19.255,8.534 19.173,8.704 C19.492,8.653 19.741,8.573 19.967,8.449 L19.988,8.435 L20.048,8.577 L20.032,8.587 C19.828,8.701 19.621,8.751 19.375,8.809 C19.375,8.809 19.198,8.842 19.077,8.864 C19.111,8.895 19.129,8.939 19.129,8.992 C19.129,9.09 19.053,9.168 18.95,9.168 C18.85,9.168 18.767,9.09 18.767,8.992 C18.767,8.939 18.791,8.895 18.822,8.864 C18.693,8.841 18.508,8.809 18.503,8.809 C18.266,8.751 18.075,8.701 17.869,8.587 L17.852,8.577 L17.915,8.435 L17.935,8.449 C18.167,8.574 18.413,8.655 18.745,8.707 C18.65,8.537 18.59,8.267 18.59,7.955 C18.59,7.713 18.627,7.487 18.689,7.324 L18.257,7.324 C18.026,7.324 17.919,7.181 17.919,7.048 C17.919,6.941 18.01,6.846 18.119,6.846" id="Fill-40" fill="#FFFFFE"></path>
                    <path d="M17.438,7.984 C17.437,7.994 17.436,8.001 17.433,8.009 C17.399,7.994 17.364,7.981 17.326,7.972 C17.234,7.881 17.167,7.785 17.134,7.668 C17.107,7.586 17.092,7.5 17.092,7.411 C17.092,7.337 17.12,7.258 17.14,7.179 C17.229,7.257 17.314,7.345 17.372,7.446 C17.345,7.64 17.369,7.824 17.438,7.984" id="Fill-41" fill="#FFFFFE"></path>
                    <path d="M16.982,4.422 C16.781,4.427 16.6,4.481 16.448,4.581 C16.441,4.579 16.435,4.579 16.428,4.578 C16.439,4.537 16.447,4.497 16.452,4.457 C16.525,4.353 16.613,4.273 16.721,4.216 C16.872,4.139 17.042,4.113 17.206,4.131 C17.149,4.248 17.075,4.344 16.982,4.422" id="Fill-42" fill="#FFFFFE"></path>
                    <path d="M16.961,7.576 C16.956,7.582 16.953,7.59 16.95,7.596 C16.916,7.573 16.883,7.551 16.847,7.531 C16.778,7.423 16.732,7.312 16.721,7.188 C16.719,7.165 16.717,7.145 16.717,7.123 C16.717,6.98 16.766,6.843 16.838,6.711 C16.924,6.812 16.986,6.916 17.018,7.032 C16.946,7.216 16.928,7.397 16.961,7.576" id="Fill-43" fill="#FFFFFE"></path>
                    <path d="M16.432,6.626 C16.457,6.463 16.545,6.318 16.664,6.19 C16.721,6.304 16.758,6.416 16.761,6.536 C16.65,6.701 16.584,6.873 16.571,7.053 C16.566,7.06 16.561,7.067 16.556,7.074 C16.529,7.043 16.501,7.014 16.471,6.986 C16.444,6.903 16.424,6.823 16.424,6.737 C16.424,6.701 16.427,6.664 16.432,6.626" id="Fill-44" fill="#FFFFFE"></path>
                    <path d="M16.317,6.459 C16.313,6.465 16.306,6.469 16.298,6.475 C16.279,6.436 16.257,6.399 16.235,6.362 C16.232,6.348 16.227,6.333 16.227,6.317 C16.227,6.215 16.246,6.11 16.286,6.011 C16.346,5.86 16.466,5.743 16.612,5.646 C16.624,5.71 16.644,5.776 16.644,5.833 C16.644,5.889 16.637,5.944 16.624,5.999 C16.477,6.134 16.374,6.294 16.317,6.459" id="Fill-45" fill="#FFFFFE"></path>
                    <path d="M16.437,4.774 C16.557,4.666 16.719,4.611 16.896,4.591 C16.86,4.714 16.811,4.822 16.738,4.913 C16.547,4.968 16.389,5.061 16.264,5.186 C16.253,5.186 16.244,5.189 16.236,5.19 C16.236,5.153 16.233,5.114 16.23,5.076 C16.274,4.954 16.344,4.849 16.437,4.774" id="Fill-46" fill="#FFFFFE"></path>
                    <path d="M16.288,5.383 C16.383,5.254 16.527,5.159 16.698,5.095 C16.697,5.227 16.669,5.344 16.616,5.455 C16.444,5.547 16.306,5.678 16.212,5.828 C16.204,5.832 16.196,5.834 16.191,5.837 C16.183,5.798 16.171,5.757 16.157,5.718 C16.175,5.592 16.216,5.479 16.288,5.383" id="Fill-47" fill="#FFFFFE"></path>
                    <path d="M16.243,6.831 C16.17,6.795 16.095,6.769 16.008,6.752 C15.935,6.71 15.87,6.657 15.814,6.594 C15.7,6.463 15.641,6.301 15.62,6.118 C15.799,6.164 15.958,6.247 16.07,6.371 C16.169,6.502 16.22,6.662 16.243,6.831" id="Fill-48" fill="#FFFFFE"></path>
                    <path d="M16.293,7.029 L16.294,7.031 C16.428,7.126 16.52,7.269 16.585,7.428 C16.498,7.408 16.406,7.401 16.313,7.405 C16.236,7.38 16.167,7.347 16.107,7.303 C15.968,7.205 15.87,7.052 15.808,6.873 C15.995,6.877 16.158,6.928 16.293,7.029" id="Fill-49" fill="#FFFFFE"></path>
                    <path d="M16.682,7.614 L16.682,7.614 C16.835,7.678 16.961,7.794 17.058,7.932 C16.969,7.932 16.883,7.947 16.796,7.972 C16.713,7.966 16.631,7.949 16.554,7.916 C16.391,7.855 16.265,7.736 16.17,7.584 C16.344,7.545 16.52,7.549 16.682,7.614" id="Fill-50" fill="#FFFFFE"></path>
                    <path d="M17.184,8.09 L17.186,8.09 C17.353,8.115 17.507,8.206 17.642,8.331 C17.478,8.405 17.303,8.444 17.14,8.418 C16.973,8.392 16.819,8.306 16.683,8.179 C16.851,8.101 17.023,8.066 17.184,8.09" id="Fill-51" fill="#FFFFFE"></path>
                    <path d="M17.634,8.037 C17.554,7.907 17.511,7.764 17.511,7.603 C17.511,7.588 17.515,7.573 17.515,7.557 C17.679,7.628 17.817,7.729 17.909,7.869 L17.909,7.869 C17.991,7.998 18.033,8.152 18.033,8.314 C18.033,8.328 18.032,8.34 18.032,8.353 C17.865,8.286 17.725,8.185 17.634,8.037" id="Fill-52" fill="#FFFFFE"></path>
                    <path d="M17.352,3.357 C17.381,3.296 17.403,3.233 17.419,3.165 C17.437,3.149 17.455,3.133 17.474,3.118 C17.617,3.018 17.788,2.966 17.974,2.964 C17.91,3.139 17.812,3.289 17.669,3.389 C17.54,3.478 17.391,3.526 17.228,3.538 C17.272,3.482 17.316,3.422 17.35,3.359 L17.352,3.357" id="Fill-53" fill="#FFFFFE"></path>
                    <path d="M16.924,3.147 C17.001,2.987 17.134,2.87 17.285,2.784 C17.29,2.826 17.301,2.871 17.301,2.916 C17.301,3.051 17.271,3.18 17.214,3.294 C17.148,3.438 17.027,3.552 16.875,3.642 C16.88,3.548 16.872,3.456 16.852,3.363 C16.865,3.289 16.889,3.217 16.924,3.147" id="Fill-54" fill="#FFFFFE"></path>
                    <path d="M16.814,3.906 C16.908,3.823 17.014,3.765 17.134,3.735 C17.285,3.696 17.455,3.71 17.623,3.772 C17.539,3.863 17.438,3.942 17.33,3.995 C17.146,3.955 16.962,3.967 16.789,4.027 C16.781,4.024 16.774,4.023 16.766,4.02 C16.785,3.984 16.799,3.945 16.814,3.906" id="Fill-55" fill="#FFFFFE"></path>
                    <path d="M16.377,3.686 C16.415,3.518 16.518,3.37 16.656,3.25 C16.697,3.357 16.726,3.47 16.726,3.58 C16.726,3.642 16.721,3.706 16.705,3.767 C16.668,3.921 16.573,4.061 16.447,4.182 C16.431,4.092 16.399,4.004 16.358,3.918 C16.356,3.901 16.356,3.881 16.356,3.864 C16.356,3.805 16.362,3.747 16.377,3.686" id="Fill-56" fill="#FFFFFE"></path>
                    <path d="M15.988,4.34 C15.988,4.17 16.051,4.004 16.147,3.853 C16.244,4.008 16.309,4.171 16.309,4.336 C16.309,4.336 16.309,4.342 16.309,4.344 C16.309,4.508 16.25,4.664 16.162,4.807 C16.13,4.729 16.089,4.652 16.032,4.583 C16.004,4.505 15.988,4.424 15.988,4.343 L15.988,4.34" id="Fill-57" fill="#FFFFFE"></path>
                    <path d="M15.792,4.558 C15.93,4.683 16.034,4.825 16.078,4.992 C16.093,5.057 16.101,5.124 16.101,5.189 C16.101,5.291 16.076,5.386 16.041,5.487 C15.988,5.414 15.92,5.348 15.849,5.298 C15.804,5.229 15.768,5.154 15.747,5.074 C15.731,5.011 15.723,4.945 15.723,4.88 C15.723,4.778 15.752,4.667 15.792,4.558" id="Fill-58" fill="#FFFFFE"></path>
                    <path d="M15.611,5.328 C15.773,5.412 15.91,5.53 15.991,5.686 C16.053,5.804 16.084,5.933 16.084,6.077 C16.084,6.106 16.078,6.141 16.074,6.171 C16.003,6.113 15.924,6.065 15.84,6.029 C15.78,5.971 15.73,5.906 15.692,5.835 C15.626,5.72 15.595,5.584 15.595,5.446 C15.595,5.407 15.605,5.366 15.611,5.328" id="Fill-59" fill="#FFFFFE"></path>
                    <path d="M19.165,3.881 C19.165,3.504 19.129,3.068 18.959,2.63 L18.959,6.992 L19.165,6.992 L19.165,3.881" id="Fill-60" fill="#1A1919"></path>
                    <path d="M10.953,7.449 C11.299,7.54 11.67,7.63 12.035,7.604 C12.035,7.423 12.035,3.777 12.035,3.119 C12.035,3.072 12.035,3.039 12.035,3.025 C11.643,3.049 11.258,2.955 10.899,2.861 C10.577,2.782 10.272,2.705 10.003,2.718 C9.62,2.729 9.417,2.84 9.287,2.954 L9.287,7.493 C9.481,7.369 9.705,7.308 9.996,7.3 C10.296,7.288 10.613,7.363 10.953,7.449" id="Fill-61" fill="#FFFFFE"></path>
                    <path d="M8.366,7.3 C8.655,7.308 8.879,7.369 9.072,7.493 L9.072,2.954 C8.94,2.836 8.741,2.729 8.357,2.718 C8.081,2.705 7.784,2.782 7.461,2.861 C7.096,2.955 6.721,3.049 6.328,3.025 C6.328,3.039 6.328,3.072 6.328,3.119 C6.328,3.777 6.328,7.423 6.328,7.604 C6.691,7.63 7.056,7.54 7.408,7.449 C7.746,7.363 8.061,7.288 8.366,7.3" id="Fill-62" fill="#FFFFFE"></path>
                    <path d="M12.611,3.119 L12.317,3.119 L12.342,3.221 C12.345,3.229 12.346,3.244 12.346,3.253 L12.346,7.966 C12.116,7.966 9.567,7.961 9.425,7.961 C9.373,8.05 9.308,8.066 9.174,8.066 C9.051,8.066 8.996,8.05 8.943,7.961 C8.813,7.961 6.467,7.966 6.007,7.966 L6.007,3.253 C6.007,3.244 6.007,3.229 6.01,3.22 L6.036,3.119 L5.64,3.119 L5.64,8.333 C5.64,8.333 8.695,8.333 8.789,8.333 C8.855,8.458 8.992,8.56 9.174,8.56 C9.368,8.56 9.505,8.458 9.573,8.333 C9.669,8.333 12.723,8.333 12.723,8.333 L12.723,3.119 L12.611,3.119" id="Fill-63" fill="#FFFFFE"></path>
                    <path d="M9.996,3.819 C9.829,3.825 9.685,3.849 9.555,3.89 L9.555,4.124 C9.67,4.081 9.812,4.048 10.003,4.04 C10.272,4.032 10.575,4.109 10.895,4.19 C11.167,4.262 11.453,4.328 11.748,4.35 L11.748,4.134 C11.477,4.112 11.204,4.045 10.952,3.975 C10.612,3.89 10.294,3.809 9.996,3.819" id="Fill-64" fill="#1A1919"></path>
                    <path d="M9.996,6.477 C9.829,6.481 9.685,6.505 9.555,6.547 L9.555,6.781 C9.67,6.736 9.812,6.703 10.003,6.7 C10.27,6.687 10.574,6.765 10.895,6.844 C11.164,6.914 11.451,6.984 11.748,7.005 L11.748,6.789 C11.476,6.77 11.203,6.702 10.949,6.633 C10.612,6.549 10.294,6.467 9.996,6.477" id="Fill-65" fill="#1A1919"></path>
                    <path d="M9.996,5.944 C9.829,5.95 9.685,5.973 9.555,6.013 L9.555,6.249 C9.669,6.204 9.812,6.171 10.003,6.164 C10.272,6.154 10.575,6.233 10.897,6.312 C11.167,6.381 11.453,6.454 11.748,6.473 L11.748,6.258 C11.477,6.237 11.204,6.167 10.953,6.099 C10.613,6.013 10.296,5.931 9.996,5.944" id="Fill-66" fill="#1A1919"></path>
                    <path d="M9.996,4.35 C9.829,4.356 9.685,4.379 9.555,4.42 L9.555,4.654 C9.669,4.611 9.812,4.578 10.003,4.571 C10.27,4.562 10.573,4.637 10.893,4.72 C11.164,4.792 11.451,4.858 11.748,4.88 L11.748,4.664 C11.476,4.643 11.201,4.574 10.947,4.507 C10.61,4.42 10.294,4.339 9.996,4.35" id="Fill-67" fill="#1A1919"></path>
                    <path d="M9.996,5.416 C9.829,5.418 9.685,5.439 9.555,5.479 L9.555,5.714 C9.669,5.671 9.81,5.639 10.001,5.636 C10.27,5.628 10.573,5.703 10.892,5.785 C11.162,5.849 11.451,5.924 11.748,5.944 L11.748,5.729 C11.474,5.708 11.2,5.639 10.945,5.571 C10.609,5.486 10.294,5.406 9.996,5.416" id="Fill-68" fill="#1A1919"></path>
                    <path d="M10.952,3.442 C10.612,3.358 10.294,3.283 9.996,3.292 C9.829,3.296 9.685,3.318 9.555,3.358 L9.555,3.593 C9.669,3.548 9.812,3.515 10.003,3.509 C10.272,3.499 10.575,3.575 10.895,3.657 C11.167,3.73 11.453,3.798 11.748,3.816 L11.748,3.601 C11.477,3.579 11.204,3.512 10.952,3.442" id="Fill-69" fill="#1A1919"></path>
                    <path d="M7.411,6.102 C7.147,6.167 6.884,6.237 6.611,6.258 L6.611,6.475 C6.909,6.454 7.184,6.382 7.466,6.312 C7.787,6.233 8.081,6.155 8.358,6.164 C8.55,6.171 8.695,6.202 8.809,6.249 L8.809,6.013 C8.677,5.973 8.533,5.95 8.366,5.944 C8.061,5.933 7.75,6.013 7.411,6.102" id="Fill-70" fill="#1A1919"></path>
                    <path d="M7.417,5.571 C7.149,5.639 6.886,5.708 6.611,5.73 L6.611,5.944 C6.911,5.924 7.186,5.849 7.471,5.785 C7.789,5.703 8.084,5.628 8.358,5.636 C8.55,5.639 8.695,5.671 8.809,5.716 L8.809,5.482 C8.677,5.442 8.532,5.418 8.366,5.416 C8.063,5.406 7.752,5.486 7.417,5.571" id="Fill-71" fill="#1A1919"></path>
                    <path d="M9.996,4.882 C9.829,4.887 9.685,4.911 9.555,4.952 L9.555,5.186 C9.669,5.144 9.812,5.11 10.003,5.104 C10.272,5.094 10.575,5.17 10.897,5.254 C11.167,5.321 11.453,5.389 11.748,5.412 L11.748,5.198 C11.477,5.176 11.204,5.107 10.952,5.038 C10.613,4.952 10.296,4.871 9.996,4.882" id="Fill-72" fill="#1A1919"></path>
                    <path d="M7.412,6.634 C7.147,6.702 6.884,6.77 6.611,6.789 L6.611,7.006 C6.909,6.986 7.184,6.914 7.466,6.844 C7.787,6.765 8.081,6.687 8.358,6.7 C8.55,6.703 8.693,6.735 8.809,6.78 L8.809,6.547 C8.677,6.505 8.532,6.481 8.366,6.477 C8.061,6.467 7.75,6.549 7.412,6.634" id="Fill-73" fill="#1A1919"></path>
                    <path d="M7.41,3.442 C7.147,3.512 6.884,3.58 6.611,3.601 L6.611,3.816 C6.908,3.798 7.184,3.73 7.466,3.657 C7.787,3.575 8.081,3.499 8.358,3.509 C8.55,3.516 8.695,3.548 8.809,3.593 L8.809,3.359 C8.677,3.318 8.533,3.296 8.369,3.292 C8.061,3.283 7.748,3.358 7.41,3.442" id="Fill-74" fill="#1A1919"></path>
                    <path d="M7.41,3.975 C7.147,4.045 6.884,4.113 6.611,4.134 L6.611,4.35 C6.908,4.328 7.184,4.264 7.466,4.19 C7.787,4.109 8.081,4.032 8.358,4.04 C8.55,4.048 8.693,4.08 8.809,4.124 L8.809,3.89 C8.677,3.849 8.532,3.825 8.366,3.819 C8.061,3.809 7.748,3.89 7.41,3.975" id="Fill-75" fill="#1A1919"></path>
                    <path d="M7.411,5.038 C7.147,5.107 6.884,5.176 6.611,5.197 L6.611,5.41 C6.909,5.389 7.184,5.321 7.466,5.252 C7.787,5.17 8.081,5.094 8.358,5.104 C8.55,5.11 8.695,5.143 8.809,5.186 L8.809,4.953 C8.677,4.911 8.533,4.887 8.369,4.882 C8.061,4.871 7.75,4.952 7.411,5.038" id="Fill-76" fill="#1A1919"></path>
                    <path d="M7.417,4.507 C7.148,4.575 6.884,4.643 6.611,4.665 L6.611,4.88 C6.911,4.86 7.186,4.792 7.471,4.72 C7.789,4.637 8.084,4.562 8.358,4.571 C8.55,4.578 8.695,4.61 8.809,4.652 L8.809,4.42 C8.677,4.379 8.533,4.356 8.369,4.35 C8.063,4.339 7.752,4.42 7.417,4.507" id="Fill-77" fill="#1A1919"></path>
                    <polyline id="Fill-78" fill="#FFFFFE" points="11.495 19.321 11.485 19.993 10.956 19.578 10.41 19.993 10.398 19.321 9.747 19.153 10.264 18.726 9.987 18.109 10.646 18.246 10.956 17.644 11.25 18.246 11.922 18.109 11.635 18.726 12.151 19.153 11.495 19.321"></polyline>
                    <polyline id="Fill-79" fill="#FFFFFE" points="15.177 24.066 14.508 23.813 14.211 24.469 13.922 23.813 13.244 24.066 13.496 23.392 12.847 23.085 13.496 22.791 13.244 22.111 13.922 22.364 14.211 21.705 14.508 22.364 15.177 22.111 14.935 22.791 15.579 23.088 14.935 23.392 15.177 24.066"></polyline>
                    <polyline id="Fill-80" fill="#FFFFFE" points="13.225 15.028 13.894 15.168 14.191 14.565 14.498 15.168 15.162 15.028 14.884 15.643 15.4 16.077 14.747 16.238 14.733 16.915 14.191 16.503 13.662 16.915 13.65 16.238 12.997 16.077 13.514 15.643 13.225 15.028"></polyline>
                    <polyline id="Fill-81" fill="#FFFFFE" points="15.9 20.489 15.374 20.228 14.863 20.489 14.957 19.913 14.541 19.502 15.116 19.411 15.374 18.897 15.645 19.411 16.211 19.502 15.81 19.913 15.9 20.489"></polyline>
                    <polyline id="Fill-82" fill="#FFFFFE" points="18.028 18.371 17.428 18.363 17.144 18.877 16.853 18.363 16.253 18.371 16.561 17.862 16.253 17.35 16.853 17.36 17.144 16.842 17.428 17.36 18.028 17.35 17.719 17.862 18.028 18.371"></polyline>
                    <path d="M14.191,12.079 L21.629,18.751 C22.115,17.821 22.468,16.909 22.745,16.044 L14.191,8.364 L5.653,16.044 C5.926,16.909 6.28,17.821 6.769,18.751 L14.191,12.079" id="Fill-83" fill="#FFFFFE"></path>
                    <path d="M25.728,21.002 L26.13,18.518 L24.979,17.485 C25.1,17.165 25.216,16.842 25.308,16.501 C25.652,16.813 26.815,17.855 26.981,18.001 C26.638,19.061 26.178,20.107 25.728,21.002" id="Fill-84" fill="#FFFFFE"></path>
                    <path d="M25.172,21.831 C25.059,21.729 24.9,21.585 24.717,21.425 C24.719,21.422 24.721,21.419 24.721,21.417 C24.983,20.971 25.232,20.517 25.45,20.044 L25.172,21.831" id="Fill-85" fill="#FFFFFE"></path>
                    <path d="M1.414,18.001 C1.579,17.855 2.744,16.811 3.078,16.501 C3.184,16.844 3.3,17.163 3.42,17.482 L2.267,18.518 L2.666,20.995 C2.214,20.098 1.754,19.05 1.414,18.001" id="Fill-86" fill="#FFFFFE"></path>
                    <path d="M3.218,21.831 L2.943,20.039 C3.163,20.513 3.414,20.971 3.68,21.422 C3.501,21.58 3.331,21.731 3.218,21.831" id="Fill-87" fill="#FFFFFE"></path>
                    <path d="M24.051,21.754 C21.919,25.151 18.912,27.634 15.348,28.94 C15.348,28.94 14.321,29.312 14.191,29.362 C14.075,29.312 13.047,28.938 13.047,28.938 C9.485,27.635 6.477,25.151 4.343,21.751 C3.736,20.776 3.21,19.72 2.782,18.626 C2.966,18.461 4.074,17.459 4.403,17.165 C4.85,18.422 5.397,19.603 6.069,20.67 C7.962,23.682 10.607,25.882 13.743,27.029 C13.745,27.029 14.191,27.19 14.191,27.19 L14.652,27.029 C17.788,25.883 20.436,23.682 22.319,20.67 C23,19.598 23.547,18.417 23.993,17.165 C24.312,17.459 25.428,18.461 25.614,18.626 C25.177,19.735 24.65,20.791 24.051,21.754" id="Fill-88" fill="#FFFFFE"></path>
                    <path d="M4.622,20.209 L5.088,20.113 L5.091,20.117 L4.769,20.472 L4.622,20.209 Z M5.026,20.637 L5.364,20.262 L5.335,20.148 C5.27,20.087 5.209,20.025 5.147,19.955 C4.798,20.017 4.246,20.105 3.999,20.117 L3.933,20.042 L3.867,20.079 C3.902,20.136 3.933,20.195 3.964,20.253 C4,20.321 4.035,20.393 4.071,20.461 L4.135,20.422 L4.106,20.322 L4.471,20.238 L4.666,20.581 C4.599,20.666 4.477,20.785 4.404,20.855 L4.333,20.772 L4.263,20.811 C4.311,20.896 4.362,20.978 4.411,21.064 C4.455,21.143 4.5,21.228 4.544,21.311 L4.614,21.271 L4.581,21.17 C4.646,21.076 4.866,20.82 5.026,20.637 L5.026,20.637 Z" id="Fill-89" fill="#1A1919"></path>
                    <path d="M6.687,22.386 L6.752,22.338 C6.707,22.28 6.661,22.222 6.619,22.163 C6.575,22.105 6.536,22.045 6.495,21.985 L6.427,22.031 L6.477,22.135 C6.308,22.275 5.868,22.603 5.868,22.603 L5.865,22.601 C5.976,22.292 6.107,21.935 6.222,21.614 C6.181,21.559 6.141,21.509 6.102,21.454 C6.064,21.399 6.031,21.345 5.995,21.287 L5.933,21.335 L5.98,21.438 C5.902,21.508 5.818,21.573 5.714,21.646 L5.421,21.857 C5.314,21.932 5.228,21.99 5.135,22.041 L5.054,21.961 L4.992,22.008 C5.035,22.066 5.079,22.122 5.121,22.184 C5.16,22.243 5.199,22.302 5.243,22.363 L5.307,22.316 L5.257,22.211 C5.426,22.071 5.679,21.891 5.879,21.745 L5.881,21.746 C5.754,22.071 5.636,22.409 5.506,22.752 C5.536,22.788 5.567,22.827 5.595,22.866 C5.624,22.901 5.649,22.945 5.669,22.975 C5.763,22.897 5.888,22.804 6.031,22.697 L6.313,22.491 C6.421,22.416 6.51,22.359 6.602,22.305 L6.687,22.386" id="Fill-90" fill="#1A1919"></path>
                    <path d="M6.767,23.358 C6.479,23.616 6.512,24.003 6.737,24.245 C6.891,24.412 7.06,24.513 7.343,24.536 L7.364,24.391 C7.2,24.369 7.084,24.303 7.01,24.216 C6.837,24.028 6.826,23.761 7.037,23.564 C7.249,23.367 7.478,23.433 7.615,23.579 C7.68,23.648 7.735,23.761 7.755,23.859 L7.69,23.936 L7.748,24.003 C7.818,23.941 7.925,23.88 8.012,23.848 C7.95,23.699 7.877,23.587 7.769,23.471 C7.47,23.152 7.054,23.088 6.767,23.358" id="Fill-91" fill="#1A1919"></path>
                    <path d="M9.043,25.524 C8.872,25.728 8.631,25.79 8.449,25.64 C8.268,25.49 8.284,25.244 8.459,25.04 C8.634,24.833 8.874,24.771 9.053,24.924 C9.225,25.072 9.207,25.318 9.043,25.524 Z M9.156,24.789 C8.82,24.502 8.427,24.549 8.197,24.823 C7.943,25.137 8.002,25.489 8.338,25.772 C8.687,26.06 9.072,26.013 9.295,25.738 C9.564,25.426 9.501,25.073 9.156,24.789 L9.156,24.789 Z" id="Fill-92" fill="#1A1919"></path>
                    <path d="M10.839,26.417 C10.761,26.539 10.638,26.534 10.488,26.44 C10.452,26.42 10.422,26.397 10.398,26.375 L10.452,26.288 C10.508,26.199 10.559,26.125 10.594,26.081 C10.64,26.099 10.675,26.119 10.744,26.161 C10.871,26.238 10.897,26.324 10.839,26.417 Z M10.927,26.083 C10.854,26.037 10.778,25.994 10.703,25.95 C10.627,25.904 10.552,25.863 10.479,25.818 C10.419,25.78 10.357,25.736 10.294,25.696 L10.252,25.765 L10.337,25.843 C10.289,25.939 10.237,26.028 10.166,26.138 L9.992,26.44 C9.921,26.547 9.861,26.632 9.795,26.717 L9.688,26.674 L9.646,26.743 C9.73,26.794 9.812,26.842 9.894,26.893 C9.974,26.941 10.051,26.996 10.126,27.048 L10.166,26.98 L10.089,26.904 C10.129,26.808 10.18,26.714 10.252,26.605 L10.312,26.51 L10.391,26.56 C10.41,26.744 10.43,27.053 10.442,27.273 C10.555,27.327 10.673,27.385 10.781,27.454 L10.824,27.387 L10.789,27.339 C10.769,27.254 10.71,26.813 10.692,26.691 C10.862,26.763 11.039,26.734 11.127,26.586 C11.213,26.445 11.215,26.267 10.927,26.083 L10.927,26.083 Z" id="Fill-93" fill="#1A1919"></path>
                    <path d="M12.385,27.576 L12.113,27.452 L12.431,27.097 L12.435,27.098 L12.385,27.576 Z M12.745,27.051 L12.653,26.976 C12.567,26.965 12.48,26.953 12.387,26.93 C12.139,27.194 11.758,27.591 11.559,27.75 L11.458,27.728 L11.427,27.801 C11.487,27.828 11.55,27.852 11.611,27.88 C11.681,27.911 11.756,27.948 11.825,27.981 L11.861,27.908 L11.773,27.846 L12.017,27.563 L12.37,27.725 C12.365,27.832 12.341,27.998 12.321,28.099 L12.215,28.074 L12.183,28.145 C12.273,28.185 12.365,28.22 12.455,28.261 C12.537,28.3 12.623,28.342 12.708,28.382 L12.74,28.309 L12.656,28.247 C12.651,28.134 12.672,27.797 12.696,27.555 L12.745,27.051 L12.745,27.051 Z" id="Fill-94" fill="#1A1919"></path>
                    <path d="M16.273,28.005 C16.22,27.912 16.177,27.819 16.129,27.699 L15.99,27.378 C15.937,27.257 15.898,27.161 15.865,27.061 L15.962,26.996 L15.928,26.923 C15.839,26.964 15.752,27.005 15.665,27.042 C15.576,27.08 15.487,27.114 15.396,27.154 L15.43,27.225 L15.544,27.199 C15.595,27.292 15.642,27.386 15.696,27.505 L15.839,27.83 C15.892,27.948 15.928,28.044 15.963,28.145 L15.868,28.209 L15.9,28.282 C15.991,28.241 16.076,28.199 16.158,28.161 C16.238,28.123 16.329,28.089 16.42,28.051 L16.386,27.979 L16.273,28.005" id="Fill-95" fill="#1A1919"></path>
                    <path d="M18.496,26.797 C18.432,26.709 18.374,26.622 18.306,26.512 L18.134,26.206 C18.066,26.098 18.017,26.006 17.972,25.911 L18.059,25.834 L18.017,25.765 C17.945,25.812 17.873,25.859 17.798,25.901 C17.727,25.944 17.649,25.986 17.574,26.028 C17.617,26.188 17.74,26.799 17.766,26.927 C17.627,26.832 17.18,26.449 17.066,26.338 C16.994,26.383 16.921,26.428 16.851,26.471 C16.778,26.514 16.701,26.553 16.628,26.595 L16.669,26.662 L16.77,26.628 L16.857,26.772 C16.942,26.917 17.209,27.39 17.275,27.525 L17.191,27.601 L17.231,27.668 C17.293,27.631 17.353,27.591 17.415,27.555 C17.478,27.515 17.543,27.481 17.608,27.446 L17.567,27.378 L17.459,27.418 C17.395,27.333 17.336,27.245 17.267,27.133 L17.167,26.96 C17.083,26.808 17.021,26.701 16.992,26.648 L16.994,26.645 C17.442,27.023 17.686,27.22 17.808,27.327 L17.975,27.228 L17.762,26.183 L17.764,26.181 C17.798,26.233 17.866,26.339 17.956,26.49 L18.061,26.662 C18.13,26.775 18.175,26.867 18.214,26.964 L18.139,27.038 L18.175,27.108 C18.248,27.057 18.329,27.007 18.413,26.957 C18.496,26.908 18.582,26.861 18.666,26.811 L18.627,26.743 L18.496,26.797" id="Fill-96" fill="#1A1919"></path>
                    <path d="M19.695,25.909 C19.621,25.831 19.55,25.753 19.466,25.651 L19.304,25.453 C19.235,25.371 19.157,25.26 19.097,25.168 C19.117,25.135 19.153,25.095 19.191,25.06 C19.314,24.959 19.434,24.971 19.516,25.072 C19.6,25.172 19.622,25.295 19.498,25.395 C19.471,25.416 19.445,25.435 19.419,25.447 L19.478,25.599 C19.531,25.572 19.586,25.533 19.637,25.493 C19.901,25.281 19.908,25.013 19.763,24.835 C19.624,24.667 19.429,24.652 19.212,24.83 C19.169,24.874 19.109,24.926 19.031,24.989 C18.957,25.056 18.884,25.114 18.826,25.158 C18.77,25.203 18.7,25.256 18.625,25.318 L18.676,25.379 L18.777,25.325 C18.852,25.4 18.921,25.478 19.006,25.577 L19.216,25.853 C19.3,25.954 19.361,26.037 19.422,26.125 L19.348,26.212 L19.398,26.275 C19.472,26.211 19.544,26.149 19.621,26.089 C19.694,26.03 19.771,25.974 19.886,25.884 L19.833,25.822 L19.695,25.909" id="Fill-97" fill="#1A1919"></path>
                    <path d="M20.727,24.316 L20.501,23.893 L20.502,23.889 L20.939,24.1 L20.727,24.316 Z M21.658,24.076 C21.55,24.041 21.235,23.912 21.023,23.805 L20.56,23.585 L20.459,23.646 C20.419,23.72 20.377,23.798 20.325,23.881 C20.49,24.201 20.736,24.699 20.822,24.939 L20.766,25.023 L20.825,25.078 C20.868,25.032 20.912,24.979 20.961,24.935 C21.014,24.88 21.073,24.823 21.129,24.767 L21.072,24.711 L20.984,24.774 L20.798,24.448 L21.076,24.163 C21.176,24.204 21.314,24.285 21.402,24.336 L21.342,24.427 L21.401,24.483 C21.468,24.412 21.534,24.338 21.602,24.268 C21.669,24.201 21.736,24.136 21.804,24.073 L21.745,24.017 L21.658,24.076 L21.658,24.076 Z" id="Fill-98" fill="#1A1919"></path>
                    <path d="M22.117,22.58 C22.09,22.611 22.065,22.64 22.041,22.661 L21.959,22.601 C21.877,22.54 21.806,22.48 21.764,22.445 C21.789,22.401 21.811,22.368 21.858,22.304 C21.948,22.187 22.037,22.166 22.123,22.234 C22.228,22.322 22.22,22.443 22.117,22.58 Z M23.038,22.371 C22.953,22.381 22.499,22.4 22.376,22.404 C22.464,22.245 22.452,22.066 22.31,21.958 C22.188,21.858 22.011,21.841 21.797,22.114 C21.745,22.184 21.691,22.255 21.641,22.326 C21.589,22.396 21.539,22.464 21.489,22.529 C21.442,22.588 21.395,22.645 21.349,22.701 L21.414,22.75 L21.5,22.671 C21.592,22.73 21.676,22.788 21.782,22.868 L22.066,23.081 C22.172,23.159 22.24,23.228 22.318,23.301 L22.264,23.404 L22.33,23.451 C22.386,23.374 22.444,23.296 22.501,23.219 C22.559,23.143 22.621,23.072 22.682,22.995 L22.615,22.947 L22.533,23.024 C22.44,22.97 22.355,22.909 22.248,22.832 L22.17,22.761 L22.222,22.686 C22.402,22.682 22.715,22.694 22.941,22.701 C23.003,22.596 23.072,22.487 23.153,22.388 L23.088,22.34 L23.038,22.371 L23.038,22.371 Z" id="Fill-99" fill="#1A1919"></path>
                    <path d="M23.822,21.043 C23.703,21.245 23.457,21.267 23.233,21.13 C22.999,20.995 22.898,20.77 23.019,20.567 C23.141,20.368 23.377,20.347 23.609,20.48 C23.842,20.615 23.943,20.843 23.822,21.043 Z M23.784,20.189 C23.423,19.98 23.096,20.097 22.868,20.48 C22.639,20.868 22.752,21.242 23.061,21.422 C23.403,21.629 23.748,21.514 23.977,21.13 C24.206,20.746 24.095,20.371 23.784,20.189 L23.784,20.189 Z" id="Fill-100" fill="#1A1919"></path>
                    <path d="M14.191,27.85 C14.052,27.85 13.93,27.974 13.93,28.123 C13.93,28.277 14.052,28.404 14.191,28.404 C14.345,28.404 14.472,28.277 14.472,28.123 C14.472,27.974 14.345,27.85 14.191,27.85" id="Fill-101" fill="#1A1919"></path>
                    <path d="M4.061,19.187 C4.21,19.187 4.336,19.061 4.336,18.914 C4.336,18.761 4.21,18.633 4.061,18.633 C3.915,18.633 3.791,18.761 3.791,18.914 C3.791,19.061 3.915,19.187 4.061,19.187" id="Fill-102" fill="#1A1919"></path>
                    <path d="M24.377,19.187 C24.53,19.187 24.656,19.061 24.656,18.914 C24.656,18.761 24.53,18.633 24.377,18.633 C24.236,18.633 24.107,18.761 24.107,18.914 C24.107,19.061 24.236,19.187 24.377,19.187" id="Fill-103" fill="#1A1919"></path>
                </g>
                <path d="M147.46,51.962 L148.704,47.418 L148.726,47.418 L149.97,51.962 L147.46,51.962 Z M145.878,54.923 L146.647,54.923 L147.302,52.572 L150.128,52.572 L150.783,54.923 L151.552,54.923 L149.167,46.853 L148.263,46.853 L145.878,54.923 Z M152.173,54.923 L152.897,54.923 L152.897,51.238 L154.264,51.238 C155.564,51.238 155.824,51.69 155.869,53.115 L155.892,53.793 C155.903,54.222 155.937,54.64 156.107,54.923 L156.954,54.923 C156.672,54.606 156.627,54.177 156.615,53.736 L156.593,52.855 C156.559,51.611 156.22,51.035 155.214,50.945 L155.214,50.922 C156.287,50.718 156.672,49.848 156.672,48.876 C156.672,47.622 155.926,46.853 154.581,46.853 L152.173,46.853 L152.173,54.923 Z M152.897,47.463 L154.219,47.463 C155.53,47.463 155.948,48.062 155.948,49.046 C155.948,50.108 155.282,50.628 154.14,50.628 L152.897,50.628 L152.897,47.463 Z M162.006,52.188 C161.927,53.578 161.351,54.448 160.334,54.448 C159.181,54.448 158.48,53.499 158.48,50.888 C158.48,48.277 159.181,47.328 160.334,47.328 C161.373,47.328 161.927,48.108 161.927,49.204 L162.651,49.204 C162.651,47.882 161.972,46.717 160.334,46.717 C158.684,46.717 157.757,47.995 157.757,50.888 C157.757,53.781 158.684,55.059 160.334,55.059 C161.78,55.059 162.628,54.03 162.73,52.188 L162.006,52.188 Z M167.567,54.923 L168.29,54.923 L168.29,46.853 L167.567,46.853 L167.567,50.289 L164.414,50.289 L164.414,46.853 L163.69,46.853 L163.69,54.923 L164.414,54.923 L164.414,50.899 L167.567,50.899 L167.567,54.923 Z M169.601,54.923 L170.325,54.923 L170.325,46.853 L169.601,46.853 L169.601,54.923 Z M173.15,54.923 L173.874,54.923 L173.874,47.463 L175.953,47.463 L175.953,46.853 L171.071,46.853 L171.071,47.463 L173.15,47.463 L173.15,54.923 Z M176.654,54.923 L180.756,54.923 L180.756,54.313 L177.377,54.313 L177.377,51.012 L180.44,51.012 L180.44,50.402 L177.377,50.402 L177.377,47.463 L180.655,47.463 L180.655,46.853 L176.654,46.853 L176.654,54.923 Z M185.853,52.188 C185.774,53.578 185.198,54.448 184.181,54.448 C183.028,54.448 182.327,53.499 182.327,50.888 C182.327,48.277 183.028,47.328 184.181,47.328 C185.221,47.328 185.774,48.108 185.774,49.204 L186.498,49.204 C186.498,47.882 185.82,46.717 184.181,46.717 C182.531,46.717 181.604,47.995 181.604,50.888 C181.604,53.781 182.531,55.059 184.181,55.059 C185.627,55.059 186.475,54.03 186.577,52.188 L185.853,52.188 Z M189.052,54.923 L189.775,54.923 L189.775,47.463 L191.855,47.463 L191.855,46.853 L186.972,46.853 L186.972,47.463 L189.052,47.463 L189.052,54.923 Z M192.442,52.662 C192.442,54.358 193.268,55.059 194.748,55.059 C196.229,55.059 197.054,54.358 197.054,52.662 L197.054,46.853 L196.33,46.853 L196.33,52.651 C196.33,53.86 195.811,54.448 194.748,54.448 C193.686,54.448 193.166,53.86 193.166,52.651 L193.166,46.853 L192.442,46.853 L192.442,52.662 Z M198.207,54.923 L198.93,54.923 L198.93,51.238 L200.297,51.238 C201.597,51.238 201.857,51.69 201.902,53.115 L201.925,53.793 C201.936,54.222 201.97,54.64 202.14,54.923 L202.987,54.923 C202.705,54.606 202.66,54.177 202.648,53.736 L202.626,52.855 C202.592,51.611 202.253,51.035 201.247,50.945 L201.247,50.922 C202.321,50.718 202.705,49.848 202.705,48.876 C202.705,47.622 201.959,46.853 200.614,46.853 L198.207,46.853 L198.207,54.923 Z M198.93,47.463 L200.252,47.463 C201.563,47.463 201.982,48.062 201.982,49.046 C201.982,50.108 201.315,50.628 200.173,50.628 L198.93,50.628 L198.93,47.463 Z M203.858,54.923 L207.96,54.923 L207.96,54.313 L204.581,54.313 L204.581,51.012 L207.644,51.012 L207.644,50.402 L204.581,50.402 L204.581,47.463 L207.859,47.463 L207.859,46.853 L203.858,46.853 L203.858,54.923 L203.858,54.923 Z" id="Fill-105" fill="#000000" fill-rule="nonzero"></path>
                <path d="M146.522,44.374 L148.466,44.374 C150.817,44.374 151.394,42.973 151.394,40.339 C151.394,37.706 150.817,36.304 148.466,36.304 L146.522,36.304 L146.522,44.374 Z M147.246,36.915 L148.421,36.915 C150.003,36.915 150.67,37.706 150.67,40.351 C150.67,42.973 150.003,43.764 148.421,43.764 L147.246,43.764 L147.246,36.915 Z M152.591,44.374 L156.694,44.374 L156.694,43.764 L153.315,43.764 L153.315,40.464 L156.378,40.464 L156.378,39.853 L153.315,39.853 L153.315,36.915 L156.592,36.915 L156.592,36.304 L152.591,36.304 L152.591,44.374 Z M161.87,38.373 C161.87,36.937 161.181,36.169 159.678,36.169 C158.276,36.169 157.451,37.039 157.451,38.305 C157.451,41.232 161.362,39.865 161.362,42.261 C161.362,43.391 160.638,43.899 159.621,43.899 C158.559,43.899 158.016,43.21 158.016,42.182 L158.016,41.876 L157.293,41.876 L157.293,42.114 C157.293,43.696 158.129,44.51 159.644,44.51 C161.113,44.51 162.085,43.707 162.085,42.148 C162.085,39.311 158.175,40.633 158.175,38.226 C158.175,37.423 158.717,36.779 159.7,36.779 C160.684,36.779 161.147,37.378 161.147,38.373 L161.87,38.373 Z M163.08,44.374 L163.803,44.374 L163.803,36.304 L163.08,36.304 L163.08,44.374 Z M169.307,40.87 L169.307,41.04 C169.307,42.927 168.708,43.899 167.623,43.899 C166.47,43.899 165.77,42.95 165.77,40.339 C165.77,37.728 166.47,36.779 167.623,36.779 C168.685,36.779 169.217,37.593 169.217,38.565 L169.94,38.565 C169.85,37.175 169.16,36.169 167.623,36.169 C165.973,36.169 165.046,37.446 165.046,40.339 C165.046,43.233 165.973,44.51 167.623,44.51 C168.426,44.51 169.149,43.933 169.398,43.04 L169.42,43.04 L169.42,44.374 L169.985,44.374 L169.985,40.26 L167.397,40.26 L167.397,40.87 L169.307,40.87 Z M171.183,44.374 L171.906,44.374 L171.906,37.344 L171.929,37.344 L175.015,44.374 L175.987,44.374 L175.987,36.304 L175.263,36.304 L175.263,43.334 L175.241,43.334 L172.155,36.304 L171.183,36.304 L171.183,44.374 Z M184.7,44.374 L185.469,44.374 L184.406,42.882 C184.768,42.238 184.972,41.492 184.972,40.791 L184.293,40.791 C184.282,41.289 184.203,41.82 184,42.317 L182.259,39.876 C183.412,39.062 183.683,38.452 183.683,37.796 C183.683,36.903 183.073,36.304 182.135,36.304 C181.242,36.304 180.485,36.824 180.485,37.796 C180.485,38.429 180.835,39.028 181.411,39.785 L180.745,40.294 C180.01,40.859 179.58,41.526 179.58,42.374 C179.58,43.56 180.451,44.51 181.841,44.51 C182.835,44.51 183.536,44.069 183.988,43.391 L184.7,44.374 Z M181.163,37.774 C181.163,37.254 181.558,36.869 182.09,36.869 C182.609,36.869 183.005,37.254 183.005,37.774 C183.005,38.214 182.813,38.734 181.92,39.412 C181.468,38.802 181.163,38.203 181.163,37.774 Z M183.638,42.882 C183.321,43.504 182.598,43.899 181.943,43.899 C181.05,43.899 180.304,43.255 180.304,42.295 C180.304,41.662 180.609,41.029 181.75,40.238 L183.638,42.882 L183.638,42.882 Z" id="Fill-106" fill="#000000" fill-rule="nonzero"></path>
                <path d="M147.46,30.864 L148.704,26.321 L148.726,26.321 L149.97,30.864 L147.46,30.864 Z M145.878,33.825 L146.647,33.825 L147.302,31.475 L150.128,31.475 L150.783,33.825 L151.552,33.825 L149.167,25.756 L148.263,25.756 L145.878,33.825 Z M152.173,33.825 L152.897,33.825 L152.897,30.141 L154.264,30.141 C155.564,30.141 155.824,30.593 155.869,32.017 L155.892,32.695 C155.903,33.125 155.937,33.543 156.107,33.825 L156.954,33.825 C156.672,33.509 156.627,33.079 156.615,32.639 L156.593,31.757 C156.559,30.514 156.22,29.937 155.214,29.847 L155.214,29.824 C156.287,29.621 156.672,28.751 156.672,27.779 C156.672,26.524 155.926,25.756 154.581,25.756 L152.173,25.756 L152.173,33.825 Z M152.897,26.366 L154.219,26.366 C155.53,26.366 155.948,26.965 155.948,27.948 C155.948,29.011 155.282,29.531 154.14,29.531 L152.897,29.531 L152.897,26.366 Z M159.136,33.825 L159.859,33.825 L159.859,26.366 L161.939,26.366 L161.939,25.756 L157.056,25.756 L157.056,26.366 L159.136,26.366 L159.136,33.825 L159.136,33.825 Z" id="Fill-107" fill="#000000" fill-rule="nonzero"></path>
                <path d="M146.59,23.277 L147.314,23.277 L147.314,15.885 L147.336,15.885 L149.427,23.277 L150.105,23.277 L152.196,15.885 L152.219,15.885 L152.219,23.277 L152.942,23.277 L152.942,15.207 L151.755,15.207 L149.811,22.373 L149.789,22.373 L147.845,15.207 L146.59,15.207 L146.59,23.277 Z M154.208,19.242 C154.208,22.135 155.135,23.412 156.785,23.412 C158.435,23.412 159.362,22.135 159.362,19.242 C159.362,16.348 158.435,15.071 156.785,15.071 C155.135,15.071 154.208,16.348 154.208,19.242 Z M154.931,19.242 C154.931,16.631 155.632,15.682 156.785,15.682 C157.937,15.682 158.638,16.631 158.638,19.242 C158.638,21.853 157.937,22.802 156.785,22.802 C155.632,22.802 154.931,21.853 154.931,19.242 Z M160.56,23.277 L161.283,23.277 L161.283,16.247 L161.306,16.247 L164.391,23.277 L165.363,23.277 L165.363,15.207 L164.64,15.207 L164.64,22.237 L164.617,22.237 L161.532,15.207 L160.56,15.207 L160.56,23.277 Z M167.567,20.316 L168.81,15.772 L168.833,15.772 L170.076,20.316 L167.567,20.316 Z M165.984,23.277 L166.753,23.277 L167.409,20.926 L170.234,20.926 L170.89,23.277 L171.658,23.277 L169.273,15.207 L168.369,15.207 L165.984,23.277 Z M176.541,17.275 C176.541,15.84 175.851,15.071 174.348,15.071 C172.947,15.071 172.122,15.942 172.122,17.207 C172.122,20.135 176.032,18.767 176.032,21.163 C176.032,22.293 175.309,22.802 174.292,22.802 C173.229,22.802 172.687,22.113 172.687,21.084 L172.687,20.779 L171.963,20.779 L171.963,21.016 C171.963,22.599 172.8,23.412 174.314,23.412 C175.783,23.412 176.755,22.61 176.755,21.05 C176.755,18.213 172.845,19.536 172.845,17.128 C172.845,16.326 173.387,15.682 174.371,15.682 C175.354,15.682 175.817,16.281 175.817,17.275 L176.541,17.275 Z M181.581,23.277 L182.305,23.277 L182.305,15.207 L181.581,15.207 L181.581,18.643 L178.428,18.643 L178.428,15.207 L177.705,15.207 L177.705,23.277 L178.428,23.277 L178.428,19.253 L181.581,19.253 L181.581,23.277 L181.581,23.277 Z" id="Fill-108" fill="#000000" fill-rule="nonzero"></path>
                <polygon id="Fill-109" fill="#000000" fill-rule="nonzero" points="131.762 55.228 132.138 55.228 132.138 14.657 131.762 14.657"></polygon>
                <g id="XYX" transform="translate(226.000000, 0.000000)" fill="#1A1919" font-family="LucidaGrande, Lucida Grande" font-size="27.2338" font-weight="normal">
                    <text>
                        <tspan x="0.65" y="26.9168176">XYX</tspan>
                    </text>
                </g>
                <g id="LAB" transform="translate(278.000000, 0.000000)" fill="#0A0B09" font-family="LucidaGrande, Lucida Grande" font-size="27.2338" font-weight="normal">
                    <text>
                        <tspan x="0.639324" y="26.9168176">LAB</tspan>
                    </text>
                </g>
                <g id="GENDER+PLACE" transform="translate(227.000000, 30.000000)" fill="#1A1919" font-family="LucidaGrande, Lucida Grande" font-size="13.2729" font-weight="normal">
                    <text id="GENDER+PLA">
                        <tspan x="0.004" y="13.1700494">GENDER+PLA</tspan>
                    </text>
                    <text id="C">
                        <tspan x="86.245445" y="13.1700494">C</tspan>
                    </text>
                    <text id="E">
                        <tspan x="95.162107" y="13.1700494">E</tspan>
                    </text>
                </g>
            </g>
        </g>
    </g>
</svg>